<?xml version="1.0" standalone="no"?><!DOCTYPE svg PUBLIC "-//W3C//DTD SVG 1.1//EN" "http://www.w3.org/Graphics/SVG/1.1/DTD/svg11.dtd"><svg t="1519742480204" class="icon" style="" viewBox="0 0 1024 1024" version="1.1" xmlns="http://www.w3.org/2000/svg" p-id="36291" xmlns:xlink="http://www.w3.org/1999/xlink" width="200" height="200"><defs><style type="text/css"></style></defs><path d="M500 457.6l127.2-216h-70.4l-74.4 136.8c-7.2 13.6-13.6 26.4-19.2 36.8l-16 31.2-16-31.2c-19.2-37.6-48.8-93.6-92-172l-0.8-0.8H264l128 220.8H289.6v53.6h123.2v62.4H289.6V632h123.2v97.6h65.6V632h119.2v-53.6H479.2v-62.4h119.2v-53.6H497.6l2.4-4.8z" p-id="36292"></path><path d="M1008.8 972l-232-206.4 4.8-5.6c28-34.4 50.4-72.8 67.2-114.4 22.4-56 34.4-115.2 34.4-176.8 0-61.6-11.2-120.8-34.4-176.8-21.6-54.4-53.6-102.4-92.8-144.8-40-41.6-86.4-74.4-138.4-97.6-53.6-24-111.2-36-170.4-36S329.6 26.4 276 50.4c-52 23.2-98.4 56-138.4 97.6-40 41.6-71.2 90.4-92.8 144.8-22.4 56-34.4 115.2-34.4 176.8 0 61.6 11.2 120.8 34.4 176.8 21.6 54.4 53.6 102.4 92.8 144.8 40 41.6 86.4 74.4 138.4 97.6 53.6 24 111.2 36 170.4 36s116-12 170.4-36c43.2-19.2 82.4-44.8 117.6-77.6l4.8-4.8 233.6 207.2c11.2 9.6 28.8 8.8 39.2-2.4 4.8-5.6 7.2-12.8 7.2-20-1.6-7.2-4.8-14.4-10.4-19.2z m-562.4-102.4c-210.4 0-380.8-179.2-380.8-400s171.2-400 380.8-400 380.8 179.2 380.8 400c0 220-171.2 400-380.8 400z" p-id="36293"></path></svg>